<svg class="qrCode" id="" version="1.1" xmlns="http://www.w3.org/2000/svg" viewBox="-5 -5 43 43"><path class="qrLight" fill="#1d2021" d="M-5,-5h43v43h-43Z"></path><g fill="#fabd2f" class="qrDark qrRounded qrModules"><rect x="8.1" y="7.099999904632568" width="0.800000011920929" height="0.800000011920929" rx="0.4000000059604645"></rect><rect x="12.1" y="7.099999904632568" width="0.800000011920929" height="0.800000011920929" rx="0.4000000059604645"></rect><rect x="15.1" y="7.099999904632568" width="0.800000011920929" height="0.800000011920929" rx="0.4000000059604645"></rect><rect x="16.1" y="7.099999904632568" width="0.800000011920929" height="0.800000011920929" rx="0.4000000059604645"></rect><rect x="17.1" y="7.099999904632568" width="0.800000011920929" height="0.800000011920929" rx="0.4000000059604645"></rect><rect x="18.1" y="7.099999904632568" width="0.800000011920929" height="0.800000011920929" rx="0.4000000059604645"></rect><rect x="19.1" y="7.099999904632568" width="0.800000011920929" height="0.800000011920929" rx="0.4000000059604645"></rect><rect x="21.1" y="7.099999904632568" width="0.800000011920929" height="0.800000011920929" rx="0.4000000059604645"></rect><rect x="22.1" y="7.099999904632568" width="0.800000011920929" height="0.800000011920929" rx="0.4000000059604645"></rect><rect x="23.1" y="7.099999904632568" width="0.800000011920929" height="0.800000011920929" rx="0.4000000059604645"></rect><rect x="24.1" y="7.099999904632568" width="0.800000011920929" height="0.800000011920929" rx="0.4000000059604645"></rect><rect x="2.1" y="8.100000381469727" width="0.800000011920929" height="0.800000011920929" rx="0.4000000059604645"></rect><rect x="3.1" y="8.100000381469727" width="0.800000011920929" height="0.800000011920929" rx="0.4000000059604645"></rect><rect x="4.1" y="8.100000381469727" width="0.800000011920929" height="0.800000011920929" rx="0.4000000059604645"></rect><rect x="6.1" y="8.100000381469727" width="0.800000011920929" height="0.800000011920929" rx="0.4000000059604645"></rect><rect x="8.1" y="8.100000381469727" width="0.800000011920929" height="0.800000011920929" rx="0.4000000059604645"></rect><rect x="9.1" y="8.100000381469727" width="0.800000011920929" height="0.800000011920929" rx="0.4000000059604645"></rect><rect x="16.1" y="8.100000381469727" width="0.800000011920929" height="0.800000011920929" rx="0.4000000059604645"></rect><rect x="17.1" y="8.100000381469727" width="0.800000011920929" height="0.800000011920929" rx="0.4000000059604645"></rect><rect x="18.1" y="8.100000381469727" width="0.800000011920929" height="0.800000011920929" rx="0.4000000059604645"></rect><rect x="20.1" y="8.100000381469727" width="0.800000011920929" height="0.800000011920929" rx="0.4000000059604645"></rect><rect x="22.1" y="8.100000381469727" width="0.800000011920929" height="0.800000011920929" rx="0.4000000059604645"></rect><rect x="24.1" y="8.100000381469727" width="0.800000011920929" height="0.800000011920929" rx="0.4000000059604645"></rect><rect x="25.1" y="8.100000381469727" width="0.800000011920929" height="0.800000011920929" rx="0.4000000059604645"></rect><rect x="26.1" y="8.100000381469727" width="0.800000011920929" height="0.800000011920929" rx="0.4000000059604645"></rect><rect x="27.1" y="8.100000381469727" width="0.800000011920929" height="0.800000011920929" rx="0.4000000059604645"></rect><rect x="30.1" y="8.100000381469727" width="0.800000011920929" height="0.800000011920929" rx="0.4000000059604645"></rect><rect x="31.1" y="8.100000381469727" width="0.800000011920929" height="0.800000011920929" rx="0.4000000059604645"></rect><rect x="32.1" y="8.100000381469727" width="0.800000011920929" height="0.800000011920929" rx="0.4000000059604645"></rect><rect x="1.1" y="9.100000381469727" width="0.800000011920929" height="0.800000011920929" rx="0.4000000059604645"></rect><rect x="3.1" y="9.100000381469727" width="0.800000011920929" height="0.800000011920929" rx="0.4000000059604645"></rect><rect x="4.1" y="9.100000381469727" width="0.800000011920929" height="0.800000011920929" rx="0.4000000059604645"></rect><rect x="7.1" y="9.100000381469727" width="0.800000011920929" height="0.800000011920929" rx="0.4000000059604645"></rect><rect x="8.1" y="9.100000381469727" width="0.800000011920929" height="0.800000011920929" rx="0.4000000059604645"></rect><rect x="10.1" y="9.100000381469727" width="0.800000011920929" height="0.800000011920929" rx="0.4000000059604645"></rect><rect x="11.1" y="9.100000381469727" width="0.800000011920929" height="0.800000011920929" rx="0.4000000059604645"></rect><rect x="14.1" y="9.100000381469727" width="0.800000011920929" height="0.800000011920929" rx="0.4000000059604645"></rect><rect x="15.1" y="9.100000381469727" width="0.800000011920929" height="0.800000011920929" rx="0.4000000059604645"></rect><rect x="19.1" y="9.100000381469727" width="0.800000011920929" height="0.800000011920929" rx="0.4000000059604645"></rect><rect x="22.1" y="9.100000381469727" width="0.800000011920929" height="0.800000011920929" rx="0.4000000059604645"></rect><rect x="23.1" y="9.100000381469727" width="0.800000011920929" height="0.800000011920929" rx="0.4000000059604645"></rect><rect x="25.1" y="9.100000381469727" width="0.800000011920929" height="0.800000011920929" rx="0.4000000059604645"></rect><rect x="26.1" y="9.100000381469727" width="0.800000011920929" height="0.800000011920929" rx="0.4000000059604645"></rect><rect x="29.1" y="9.100000381469727" width="0.800000011920929" height="0.800000011920929" rx="0.4000000059604645"></rect><rect x="32.1" y="9.100000381469727" width="0.800000011920929" height="0.800000011920929" rx="0.4000000059604645"></rect><rect x="1.1" y="10.10000038146973" width="0.800000011920929" height="0.800000011920929" rx="0.4000000059604645"></rect><rect x="2.1" y="10.10000038146973" width="0.800000011920929" height="0.800000011920929" rx="0.4000000059604645"></rect><rect x="3.1" y="10.10000038146973" width="0.800000011920929" height="0.800000011920929" rx="0.4000000059604645"></rect><rect x="5.1" y="10.10000038146973" width="0.800000011920929" height="0.800000011920929" rx="0.4000000059604645"></rect><rect x="6.1" y="10.10000038146973" width="0.800000011920929" height="0.800000011920929" rx="0.4000000059604645"></rect><rect x="10.1" y="10.10000038146973" width="0.800000011920929" height="0.800000011920929" rx="0.4000000059604645"></rect><rect x="18.1" y="10.10000038146973" width="0.800000011920929" height="0.800000011920929" rx="0.4000000059604645"></rect><rect x="19.1" y="10.10000038146973" width="0.800000011920929" height="0.800000011920929" rx="0.4000000059604645"></rect><rect x="21.1" y="10.10000038146973" width="0.800000011920929" height="0.800000011920929" rx="0.4000000059604645"></rect><rect x="22.1" y="10.10000038146973" width="0.800000011920929" height="0.800000011920929" rx="0.4000000059604645"></rect><rect x="24.1" y="10.10000038146973" width="0.800000011920929" height="0.800000011920929" rx="0.4000000059604645"></rect><rect x="26.1" y="10.10000038146973" width="0.800000011920929" height="0.800000011920929" rx="0.4000000059604645"></rect><rect x="27.1" y="10.10000038146973" width="0.800000011920929" height="0.800000011920929" rx="0.4000000059604645"></rect><rect x="29.1" y="10.10000038146973" width="0.800000011920929" height="0.800000011920929" rx="0.4000000059604645"></rect><rect x="30.1" y="10.10000038146973" width="0.800000011920929" height="0.800000011920929" rx="0.4000000059604645"></rect><rect x="31.1" y="10.10000038146973" width="0.800000011920929" height="0.800000011920929" rx="0.4000000059604645"></rect><rect x="0.1" y="11.10000038146973" width="0.800000011920929" height="0.800000011920929" rx="0.4000000059604645"></rect><rect x="1.1" y="11.10000038146973" width="0.800000011920929" height="0.800000011920929" rx="0.4000000059604645"></rect><rect x="4.1" y="11.10000038146973" width="0.800000011920929" height="0.800000011920929" rx="0.4000000059604645"></rect><rect x="5.1" y="11.10000038146973" width="0.800000011920929" height="0.800000011920929" rx="0.4000000059604645"></rect><rect x="7.1" y="11.10000038146973" width="0.800000011920929" height="0.800000011920929" rx="0.4000000059604645"></rect><rect x="9.1" y="11.10000038146973" width="0.800000011920929" height="0.800000011920929" rx="0.4000000059604645"></rect><rect x="10.1" y="11.10000038146973" width="0.800000011920929" height="0.800000011920929" rx="0.4000000059604645"></rect><rect x="12.1" y="11.10000038146973" width="0.800000011920929" height="0.800000011920929" rx="0.4000000059604645"></rect><rect x="14.1" y="11.10000038146973" width="0.800000011920929" height="0.800000011920929" rx="0.4000000059604645"></rect><rect x="15.1" y="11.10000038146973" width="0.800000011920929" height="0.800000011920929" rx="0.4000000059604645"></rect><rect x="16.1" y="11.10000038146973" width="0.800000011920929" height="0.800000011920929" rx="0.4000000059604645"></rect><rect x="17.1" y="11.10000038146973" width="0.800000011920929" height="0.800000011920929" rx="0.4000000059604645"></rect><rect x="19.1" y="11.10000038146973" width="0.800000011920929" height="0.800000011920929" rx="0.4000000059604645"></rect><rect x="20.1" y="11.10000038146973" width="0.800000011920929" height="0.800000011920929" rx="0.4000000059604645"></rect><rect x="21.1" y="11.10000038146973" width="0.800000011920929" height="0.800000011920929" rx="0.4000000059604645"></rect><rect x="22.1" y="11.10000038146973" width="0.800000011920929" height="0.800000011920929" rx="0.4000000059604645"></rect><rect x="23.1" y="11.10000038146973" width="0.800000011920929" height="0.800000011920929" rx="0.4000000059604645"></rect><rect x="24.1" y="11.10000038146973" width="0.800000011920929" height="0.800000011920929" rx="0.4000000059604645"></rect><rect x="30.1" y="11.10000038146973" width="0.800000011920929" height="0.800000011920929" rx="0.4000000059604645"></rect><rect x="31.1" y="11.10000038146973" width="0.800000011920929" height="0.800000011920929" rx="0.4000000059604645"></rect><rect x="32.1" y="11.10000038146973" width="0.800000011920929" height="0.800000011920929" rx="0.4000000059604645"></rect><rect x="0.1" y="12.10000038146973" width="0.800000011920929" height="0.800000011920929" rx="0.4000000059604645"></rect><rect x="1.1" y="12.10000038146973" width="0.800000011920929" height="0.800000011920929" rx="0.4000000059604645"></rect><rect x="2.1" y="12.10000038146973" width="0.800000011920929" height="0.800000011920929" rx="0.4000000059604645"></rect><rect x="5.1" y="12.10000038146973" width="0.800000011920929" height="0.800000011920929" rx="0.4000000059604645"></rect><rect x="6.1" y="12.10000038146973" width="0.800000011920929" height="0.800000011920929" rx="0.4000000059604645"></rect><rect x="8.1" y="12.10000038146973" width="0.800000011920929" height="0.800000011920929" rx="0.4000000059604645"></rect><rect x="15.1" y="12.10000038146973" width="0.800000011920929" height="0.800000011920929" rx="0.4000000059604645"></rect><rect x="16.1" y="12.10000038146973" width="0.800000011920929" height="0.800000011920929" rx="0.4000000059604645"></rect><rect x="18.1" y="12.10000038146973" width="0.800000011920929" height="0.800000011920929" rx="0.4000000059604645"></rect><rect x="19.1" y="12.10000038146973" width="0.800000011920929" height="0.800000011920929" rx="0.4000000059604645"></rect><rect x="20.1" y="12.10000038146973" width="0.800000011920929" height="0.800000011920929" rx="0.4000000059604645"></rect><rect x="21.1" y="12.10000038146973" width="0.800000011920929" height="0.800000011920929" rx="0.4000000059604645"></rect><rect x="23.1" y="12.10000038146973" width="0.800000011920929" height="0.800000011920929" rx="0.4000000059604645"></rect><rect x="24.1" y="12.10000038146973" width="0.800000011920929" height="0.800000011920929" rx="0.4000000059604645"></rect><rect x="25.1" y="12.10000038146973" width="0.800000011920929" height="0.800000011920929" rx="0.4000000059604645"></rect><rect x="28.1" y="12.10000038146973" width="0.800000011920929" height="0.800000011920929" rx="0.4000000059604645"></rect><rect x="31.1" y="12.10000038146973" width="0.800000011920929" height="0.800000011920929" rx="0.4000000059604645"></rect><rect x="8.1" y="13.10000038146973" width="0.800000011920929" height="0.800000011920929" rx="0.4000000059604645"></rect><rect x="9.1" y="13.10000038146973" width="0.800000011920929" height="0.800000011920929" rx="0.4000000059604645"></rect><rect x="11.1" y="13.10000038146973" width="0.800000011920929" height="0.800000011920929" rx="0.4000000059604645"></rect><rect x="16.1" y="13.10000038146973" width="0.800000011920929" height="0.800000011920929" rx="0.4000000059604645"></rect><rect x="20.1" y="13.10000038146973" width="0.800000011920929" height="0.800000011920929" rx="0.4000000059604645"></rect><rect x="23.1" y="13.10000038146973" width="0.800000011920929" height="0.800000011920929" rx="0.4000000059604645"></rect><rect x="24.1" y="13.10000038146973" width="0.800000011920929" height="0.800000011920929" rx="0.4000000059604645"></rect><rect x="25.1" y="13.10000038146973" width="0.800000011920929" height="0.800000011920929" rx="0.4000000059604645"></rect><rect x="26.1" y="13.10000038146973" width="0.800000011920929" height="0.800000011920929" rx="0.4000000059604645"></rect><rect x="29.1" y="13.10000038146973" width="0.800000011920929" height="0.800000011920929" rx="0.4000000059604645"></rect><rect x="32.1" y="13.10000038146973" width="0.800000011920929" height="0.800000011920929" rx="0.4000000059604645"></rect><rect x="0.1" y="14.10000038146973" width="0.800000011920929" height="0.800000011920929" rx="0.4000000059604645"></rect><rect x="2.1" y="14.10000038146973" width="0.800000011920929" height="0.800000011920929" rx="0.4000000059604645"></rect><rect x="6.1" y="14.10000038146973" width="0.800000011920929" height="0.800000011920929" rx="0.4000000059604645"></rect><rect x="9.1" y="14.10000038146973" width="0.800000011920929" height="0.800000011920929" rx="0.4000000059604645"></rect><rect x="11.1" y="14.10000038146973" width="0.800000011920929" height="0.800000011920929" rx="0.4000000059604645"></rect><rect x="13.1" y="14.10000038146973" width="0.800000011920929" height="0.800000011920929" rx="0.4000000059604645"></rect><rect x="14.1" y="14.10000038146973" width="0.800000011920929" height="0.800000011920929" rx="0.4000000059604645"></rect><rect x="16.1" y="14.10000038146973" width="0.800000011920929" height="0.800000011920929" rx="0.4000000059604645"></rect><rect x="18.1" y="14.10000038146973" width="0.800000011920929" height="0.800000011920929" rx="0.4000000059604645"></rect><rect x="19.1" y="14.10000038146973" width="0.800000011920929" height="0.800000011920929" rx="0.4000000059604645"></rect><rect x="22.1" y="14.10000038146973" width="0.800000011920929" height="0.800000011920929" rx="0.4000000059604645"></rect><rect x="24.1" y="14.10000038146973" width="0.800000011920929" height="0.800000011920929" rx="0.4000000059604645"></rect><rect x="27.1" y="14.10000038146973" width="0.800000011920929" height="0.800000011920929" rx="0.4000000059604645"></rect><rect x="28.1" y="14.10000038146973" width="0.800000011920929" height="0.800000011920929" rx="0.4000000059604645"></rect><rect x="29.1" y="14.10000038146973" width="0.800000011920929" height="0.800000011920929" rx="0.4000000059604645"></rect><rect x="31.1" y="14.10000038146973" width="0.800000011920929" height="0.800000011920929" rx="0.4000000059604645"></rect><rect x="0.1" y="15.10000038146973" width="0.800000011920929" height="0.800000011920929" rx="0.4000000059604645"></rect><rect x="1.1" y="15.10000038146973" width="0.800000011920929" height="0.800000011920929" rx="0.4000000059604645"></rect><rect x="2.1" y="15.10000038146973" width="0.800000011920929" height="0.800000011920929" rx="0.4000000059604645"></rect><rect x="4.1" y="15.10000038146973" width="0.800000011920929" height="0.800000011920929" rx="0.4000000059604645"></rect><rect x="5.1" y="15.10000038146973" width="0.800000011920929" height="0.800000011920929" rx="0.4000000059604645"></rect><rect x="7.1" y="15.10000038146973" width="0.800000011920929" height="0.800000011920929" rx="0.4000000059604645"></rect><rect x="9.1" y="15.10000038146973" width="0.800000011920929" height="0.800000011920929" rx="0.4000000059604645"></rect><rect x="10.1" y="15.10000038146973" width="0.800000011920929" height="0.800000011920929" rx="0.4000000059604645"></rect><rect x="11.1" y="15.10000038146973" width="0.800000011920929" height="0.800000011920929" rx="0.4000000059604645"></rect><rect x="14.1" y="15.10000038146973" width="0.800000011920929" height="0.800000011920929" rx="0.4000000059604645"></rect><rect x="15.1" y="15.10000038146973" width="0.800000011920929" height="0.800000011920929" rx="0.4000000059604645"></rect><rect x="17.1" y="15.10000038146973" width="0.800000011920929" height="0.800000011920929" rx="0.4000000059604645"></rect><rect x="18.1" y="15.10000038146973" width="0.800000011920929" height="0.800000011920929" rx="0.4000000059604645"></rect><rect x="19.1" y="15.10000038146973" width="0.800000011920929" height="0.800000011920929" rx="0.4000000059604645"></rect><rect x="20.1" y="15.10000038146973" width="0.800000011920929" height="0.800000011920929" rx="0.4000000059604645"></rect><rect x="21.1" y="15.10000038146973" width="0.800000011920929" height="0.800000011920929" rx="0.4000000059604645"></rect><rect x="22.1" y="15.10000038146973" width="0.800000011920929" height="0.800000011920929" rx="0.4000000059604645"></rect><rect x="23.1" y="15.10000038146973" width="0.800000011920929" height="0.800000011920929" rx="0.4000000059604645"></rect><rect x="24.1" y="15.10000038146973" width="0.800000011920929" height="0.800000011920929" rx="0.4000000059604645"></rect><rect x="26.1" y="15.10000038146973" width="0.800000011920929" height="0.800000011920929" rx="0.4000000059604645"></rect><rect x="27.1" y="15.10000038146973" width="0.800000011920929" height="0.800000011920929" rx="0.4000000059604645"></rect><rect x="29.1" y="15.10000038146973" width="0.800000011920929" height="0.800000011920929" rx="0.4000000059604645"></rect><rect x="30.1" y="15.10000038146973" width="0.800000011920929" height="0.800000011920929" rx="0.4000000059604645"></rect><rect x="31.1" y="15.10000038146973" width="0.800000011920929" height="0.800000011920929" rx="0.4000000059604645"></rect><rect x="1.1" y="16.10000038146973" width="0.800000011920929" height="0.800000011920929" rx="0.4000000059604645"></rect><rect x="3.1" y="16.10000038146973" width="0.800000011920929" height="0.800000011920929" rx="0.4000000059604645"></rect><rect x="6.1" y="16.10000038146973" width="0.800000011920929" height="0.800000011920929" rx="0.4000000059604645"></rect><rect x="8.1" y="16.10000038146973" width="0.800000011920929" height="0.800000011920929" rx="0.4000000059604645"></rect><rect x="10.1" y="16.10000038146973" width="0.800000011920929" height="0.800000011920929" rx="0.4000000059604645"></rect><rect x="13.1" y="16.10000038146973" width="0.800000011920929" height="0.800000011920929" rx="0.4000000059604645"></rect><rect x="14.1" y="16.10000038146973" width="0.800000011920929" height="0.800000011920929" rx="0.4000000059604645"></rect><rect x="15.1" y="16.10000038146973" width="0.800000011920929" height="0.800000011920929" rx="0.4000000059604645"></rect><rect x="16.1" y="16.10000038146973" width="0.800000011920929" height="0.800000011920929" rx="0.4000000059604645"></rect><rect x="18.1" y="16.10000038146973" width="0.800000011920929" height="0.800000011920929" rx="0.4000000059604645"></rect><rect x="19.1" y="16.10000038146973" width="0.800000011920929" height="0.800000011920929" rx="0.4000000059604645"></rect><rect x="25.1" y="16.10000038146973" width="0.800000011920929" height="0.800000011920929" rx="0.4000000059604645"></rect><rect x="28.1" y="16.10000038146973" width="0.800000011920929" height="0.800000011920929" rx="0.4000000059604645"></rect><rect x="29.1" y="16.10000038146973" width="0.800000011920929" height="0.800000011920929" rx="0.4000000059604645"></rect><rect x="30.1" y="16.10000038146973" width="0.800000011920929" height="0.800000011920929" rx="0.4000000059604645"></rect><rect x="0.1" y="17.10000038146973" width="0.800000011920929" height="0.800000011920929" rx="0.4000000059604645"></rect><rect x="1.1" y="17.10000038146973" width="0.800000011920929" height="0.800000011920929" rx="0.4000000059604645"></rect><rect x="2.1" y="17.10000038146973" width="0.800000011920929" height="0.800000011920929" rx="0.4000000059604645"></rect><rect x="3.1" y="17.10000038146973" width="0.800000011920929" height="0.800000011920929" rx="0.4000000059604645"></rect><rect x="9.1" y="17.10000038146973" width="0.800000011920929" height="0.800000011920929" rx="0.4000000059604645"></rect><rect x="13.1" y="17.10000038146973" width="0.800000011920929" height="0.800000011920929" rx="0.4000000059604645"></rect><rect x="14.1" y="17.10000038146973" width="0.800000011920929" height="0.800000011920929" rx="0.4000000059604645"></rect><rect x="16.1" y="17.10000038146973" width="0.800000011920929" height="0.800000011920929" rx="0.4000000059604645"></rect><rect x="17.1" y="17.10000038146973" width="0.800000011920929" height="0.800000011920929" rx="0.4000000059604645"></rect><rect x="18.1" y="17.10000038146973" width="0.800000011920929" height="0.800000011920929" rx="0.4000000059604645"></rect><rect x="19.1" y="17.10000038146973" width="0.800000011920929" height="0.800000011920929" rx="0.4000000059604645"></rect><rect x="21.1" y="17.10000038146973" width="0.800000011920929" height="0.800000011920929" rx="0.4000000059604645"></rect><rect x="23.1" y="17.10000038146973" width="0.800000011920929" height="0.800000011920929" rx="0.4000000059604645"></rect><rect x="24.1" y="17.10000038146973" width="0.800000011920929" height="0.800000011920929" rx="0.4000000059604645"></rect><rect x="25.1" y="17.10000038146973" width="0.800000011920929" height="0.800000011920929" rx="0.4000000059604645"></rect><rect x="26.1" y="17.10000038146973" width="0.800000011920929" height="0.800000011920929" rx="0.4000000059604645"></rect><rect x="32.1" y="17.10000038146973" width="0.800000011920929" height="0.800000011920929" rx="0.4000000059604645"></rect><rect x="2.1" y="18.10000038146973" width="0.800000011920929" height="0.800000011920929" rx="0.4000000059604645"></rect><rect x="3.1" y="18.10000038146973" width="0.800000011920929" height="0.800000011920929" rx="0.4000000059604645"></rect><rect x="5.1" y="18.10000038146973" width="0.800000011920929" height="0.800000011920929" rx="0.4000000059604645"></rect><rect x="6.1" y="18.10000038146973" width="0.800000011920929" height="0.800000011920929" rx="0.4000000059604645"></rect><rect x="8.1" y="18.10000038146973" width="0.800000011920929" height="0.800000011920929" rx="0.4000000059604645"></rect><rect x="9.1" y="18.10000038146973" width="0.800000011920929" height="0.800000011920929" rx="0.4000000059604645"></rect><rect x="10.1" y="18.10000038146973" width="0.800000011920929" height="0.800000011920929" rx="0.4000000059604645"></rect><rect x="12.1" y="18.10000038146973" width="0.800000011920929" height="0.800000011920929" rx="0.4000000059604645"></rect><rect x="15.1" y="18.10000038146973" width="0.800000011920929" height="0.800000011920929" rx="0.4000000059604645"></rect><rect x="18.1" y="18.10000038146973" width="0.800000011920929" height="0.800000011920929" rx="0.4000000059604645"></rect><rect x="20.1" y="18.10000038146973" width="0.800000011920929" height="0.800000011920929" rx="0.4000000059604645"></rect><rect x="25.1" y="18.10000038146973" width="0.800000011920929" height="0.800000011920929" rx="0.4000000059604645"></rect><rect x="30.1" y="18.10000038146973" width="0.800000011920929" height="0.800000011920929" rx="0.4000000059604645"></rect><rect x="2.1" y="19.10000038146973" width="0.800000011920929" height="0.800000011920929" rx="0.4000000059604645"></rect><rect x="3.1" y="19.10000038146973" width="0.800000011920929" height="0.800000011920929" rx="0.4000000059604645"></rect><rect x="4.1" y="19.10000038146973" width="0.800000011920929" height="0.800000011920929" rx="0.4000000059604645"></rect><rect x="5.1" y="19.10000038146973" width="0.800000011920929" height="0.800000011920929" rx="0.4000000059604645"></rect><rect x="7.1" y="19.10000038146973" width="0.800000011920929" height="0.800000011920929" rx="0.4000000059604645"></rect><rect x="8.1" y="19.10000038146973" width="0.800000011920929" height="0.800000011920929" rx="0.4000000059604645"></rect><rect x="9.1" y="19.10000038146973" width="0.800000011920929" height="0.800000011920929" rx="0.4000000059604645"></rect><rect x="12.1" y="19.10000038146973" width="0.800000011920929" height="0.800000011920929" rx="0.4000000059604645"></rect><rect x="17.1" y="19.10000038146973" width="0.800000011920929" height="0.800000011920929" rx="0.4000000059604645"></rect><rect x="19.1" y="19.10000038146973" width="0.800000011920929" height="0.800000011920929" rx="0.4000000059604645"></rect><rect x="20.1" y="19.10000038146973" width="0.800000011920929" height="0.800000011920929" rx="0.4000000059604645"></rect><rect x="21.1" y="19.10000038146973" width="0.800000011920929" height="0.800000011920929" rx="0.4000000059604645"></rect><rect x="22.1" y="19.10000038146973" width="0.800000011920929" height="0.800000011920929" rx="0.4000000059604645"></rect><rect x="23.1" y="19.10000038146973" width="0.800000011920929" height="0.800000011920929" rx="0.4000000059604645"></rect><rect x="24.1" y="19.10000038146973" width="0.800000011920929" height="0.800000011920929" rx="0.4000000059604645"></rect><rect x="27.1" y="19.10000038146973" width="0.800000011920929" height="0.800000011920929" rx="0.4000000059604645"></rect><rect x="29.1" y="19.10000038146973" width="0.800000011920929" height="0.800000011920929" rx="0.4000000059604645"></rect><rect x="30.1" y="19.10000038146973" width="0.800000011920929" height="0.800000011920929" rx="0.4000000059604645"></rect><rect x="31.1" y="19.10000038146973" width="0.800000011920929" height="0.800000011920929" rx="0.4000000059604645"></rect><rect x="0.1" y="20.10000038146973" width="0.800000011920929" height="0.800000011920929" rx="0.4000000059604645"></rect><rect x="2.1" y="20.10000038146973" width="0.800000011920929" height="0.800000011920929" rx="0.4000000059604645"></rect><rect x="4.1" y="20.10000038146973" width="0.800000011920929" height="0.800000011920929" rx="0.4000000059604645"></rect><rect x="5.1" y="20.10000038146973" width="0.800000011920929" height="0.800000011920929" rx="0.4000000059604645"></rect><rect x="6.1" y="20.10000038146973" width="0.800000011920929" height="0.800000011920929" rx="0.4000000059604645"></rect><rect x="11.1" y="20.10000038146973" width="0.800000011920929" height="0.800000011920929" rx="0.4000000059604645"></rect><rect x="12.1" y="20.10000038146973" width="0.800000011920929" height="0.800000011920929" rx="0.4000000059604645"></rect><rect x="13.1" y="20.10000038146973" width="0.800000011920929" height="0.800000011920929" rx="0.4000000059604645"></rect><rect x="15.1" y="20.10000038146973" width="0.800000011920929" height="0.800000011920929" rx="0.4000000059604645"></rect><rect x="17.1" y="20.10000038146973" width="0.800000011920929" height="0.800000011920929" rx="0.4000000059604645"></rect><rect x="18.1" y="20.10000038146973" width="0.800000011920929" height="0.800000011920929" rx="0.4000000059604645"></rect><rect x="19.1" y="20.10000038146973" width="0.800000011920929" height="0.800000011920929" rx="0.4000000059604645"></rect><rect x="20.1" y="20.10000038146973" width="0.800000011920929" height="0.800000011920929" rx="0.4000000059604645"></rect><rect x="22.1" y="20.10000038146973" width="0.800000011920929" height="0.800000011920929" rx="0.4000000059604645"></rect><rect x="25.1" y="20.10000038146973" width="0.800000011920929" height="0.800000011920929" rx="0.4000000059604645"></rect><rect x="27.1" y="20.10000038146973" width="0.800000011920929" height="0.800000011920929" rx="0.4000000059604645"></rect><rect x="28.1" y="20.10000038146973" width="0.800000011920929" height="0.800000011920929" rx="0.4000000059604645"></rect><rect x="29.1" y="20.10000038146973" width="0.800000011920929" height="0.800000011920929" rx="0.4000000059604645"></rect><rect x="0.1" y="21.10000038146973" width="0.800000011920929" height="0.800000011920929" rx="0.4000000059604645"></rect><rect x="2.1" y="21.10000038146973" width="0.800000011920929" height="0.800000011920929" rx="0.4000000059604645"></rect><rect x="5.1" y="21.10000038146973" width="0.800000011920929" height="0.800000011920929" rx="0.4000000059604645"></rect><rect x="8.1" y="21.10000038146973" width="0.800000011920929" height="0.800000011920929" rx="0.4000000059604645"></rect><rect x="9.1" y="21.10000038146973" width="0.800000011920929" height="0.800000011920929" rx="0.4000000059604645"></rect><rect x="11.1" y="21.10000038146973" width="0.800000011920929" height="0.800000011920929" rx="0.4000000059604645"></rect><rect x="12.1" y="21.10000038146973" width="0.800000011920929" height="0.800000011920929" rx="0.4000000059604645"></rect><rect x="14.1" y="21.10000038146973" width="0.800000011920929" height="0.800000011920929" rx="0.4000000059604645"></rect><rect x="16.1" y="21.10000038146973" width="0.800000011920929" height="0.800000011920929" rx="0.4000000059604645"></rect><rect x="17.1" y="21.10000038146973" width="0.800000011920929" height="0.800000011920929" rx="0.4000000059604645"></rect><rect x="19.1" y="21.10000038146973" width="0.800000011920929" height="0.800000011920929" rx="0.4000000059604645"></rect><rect x="21.1" y="21.10000038146973" width="0.800000011920929" height="0.800000011920929" rx="0.4000000059604645"></rect><rect x="23.1" y="21.10000038146973" width="0.800000011920929" height="0.800000011920929" rx="0.4000000059604645"></rect><rect x="26.1" y="21.10000038146973" width="0.800000011920929" height="0.800000011920929" rx="0.4000000059604645"></rect><rect x="32.1" y="21.10000038146973" width="0.800000011920929" height="0.800000011920929" rx="0.4000000059604645"></rect><rect x="0.1" y="22.10000038146973" width="0.800000011920929" height="0.800000011920929" rx="0.4000000059604645"></rect><rect x="2.1" y="22.10000038146973" width="0.800000011920929" height="0.800000011920929" rx="0.4000000059604645"></rect><rect x="5.1" y="22.10000038146973" width="0.800000011920929" height="0.800000011920929" rx="0.4000000059604645"></rect><rect x="6.1" y="22.10000038146973" width="0.800000011920929" height="0.800000011920929" rx="0.4000000059604645"></rect><rect x="11.1" y="22.10000038146973" width="0.800000011920929" height="0.800000011920929" rx="0.4000000059604645"></rect><rect x="13.1" y="22.10000038146973" width="0.800000011920929" height="0.800000011920929" rx="0.4000000059604645"></rect><rect x="14.1" y="22.10000038146973" width="0.800000011920929" height="0.800000011920929" rx="0.4000000059604645"></rect><rect x="15.1" y="22.10000038146973" width="0.800000011920929" height="0.800000011920929" rx="0.4000000059604645"></rect><rect x="18.1" y="22.10000038146973" width="0.800000011920929" height="0.800000011920929" rx="0.4000000059604645"></rect><rect x="20.1" y="22.10000038146973" width="0.800000011920929" height="0.800000011920929" rx="0.4000000059604645"></rect><rect x="21.1" y="22.10000038146973" width="0.800000011920929" height="0.800000011920929" rx="0.4000000059604645"></rect><rect x="22.1" y="22.10000038146973" width="0.800000011920929" height="0.800000011920929" rx="0.4000000059604645"></rect><rect x="27.1" y="22.10000038146973" width="0.800000011920929" height="0.800000011920929" rx="0.4000000059604645"></rect><rect x="29.1" y="22.10000038146973" width="0.800000011920929" height="0.800000011920929" rx="0.4000000059604645"></rect><rect x="30.1" y="22.10000038146973" width="0.800000011920929" height="0.800000011920929" rx="0.4000000059604645"></rect><rect x="31.1" y="22.10000038146973" width="0.800000011920929" height="0.800000011920929" rx="0.4000000059604645"></rect><rect x="0.1" y="23.10000038146973" width="0.800000011920929" height="0.800000011920929" rx="0.4000000059604645"></rect><rect x="2.1" y="23.10000038146973" width="0.800000011920929" height="0.800000011920929" rx="0.4000000059604645"></rect><rect x="3.1" y="23.10000038146973" width="0.800000011920929" height="0.800000011920929" rx="0.4000000059604645"></rect><rect x="4.1" y="23.10000038146973" width="0.800000011920929" height="0.800000011920929" rx="0.4000000059604645"></rect><rect x="8.1" y="23.10000038146973" width="0.800000011920929" height="0.800000011920929" rx="0.4000000059604645"></rect><rect x="10.1" y="23.10000038146973" width="0.800000011920929" height="0.800000011920929" rx="0.4000000059604645"></rect><rect x="11.1" y="23.10000038146973" width="0.800000011920929" height="0.800000011920929" rx="0.4000000059604645"></rect><rect x="13.1" y="23.10000038146973" width="0.800000011920929" height="0.800000011920929" rx="0.4000000059604645"></rect><rect x="14.1" y="23.10000038146973" width="0.800000011920929" height="0.800000011920929" rx="0.4000000059604645"></rect><rect x="15.1" y="23.10000038146973" width="0.800000011920929" height="0.800000011920929" rx="0.4000000059604645"></rect><rect x="17.1" y="23.10000038146973" width="0.800000011920929" height="0.800000011920929" rx="0.4000000059604645"></rect><rect x="18.1" y="23.10000038146973" width="0.800000011920929" height="0.800000011920929" rx="0.4000000059604645"></rect><rect x="20.1" y="23.10000038146973" width="0.800000011920929" height="0.800000011920929" rx="0.4000000059604645"></rect><rect x="21.1" y="23.10000038146973" width="0.800000011920929" height="0.800000011920929" rx="0.4000000059604645"></rect><rect x="29.1" y="23.10000038146973" width="0.800000011920929" height="0.800000011920929" rx="0.4000000059604645"></rect><rect x="30.1" y="23.10000038146973" width="0.800000011920929" height="0.800000011920929" rx="0.4000000059604645"></rect><rect x="31.1" y="23.10000038146973" width="0.800000011920929" height="0.800000011920929" rx="0.4000000059604645"></rect><rect x="32.1" y="23.10000038146973" width="0.800000011920929" height="0.800000011920929" rx="0.4000000059604645"></rect><rect x="0.1" y="24.10000038146973" width="0.800000011920929" height="0.800000011920929" rx="0.4000000059604645"></rect><rect x="3.1" y="24.10000038146973" width="0.800000011920929" height="0.800000011920929" rx="0.4000000059604645"></rect><rect x="6.1" y="24.10000038146973" width="0.800000011920929" height="0.800000011920929" rx="0.4000000059604645"></rect><rect x="7.1" y="24.10000038146973" width="0.800000011920929" height="0.800000011920929" rx="0.4000000059604645"></rect><rect x="8.1" y="24.10000038146973" width="0.800000011920929" height="0.800000011920929" rx="0.4000000059604645"></rect><rect x="12.1" y="24.10000038146973" width="0.800000011920929" height="0.800000011920929" rx="0.4000000059604645"></rect><rect x="15.1" y="24.10000038146973" width="0.800000011920929" height="0.800000011920929" rx="0.4000000059604645"></rect><rect x="18.1" y="24.10000038146973" width="0.800000011920929" height="0.800000011920929" rx="0.4000000059604645"></rect><rect x="22.1" y="24.10000038146973" width="0.800000011920929" height="0.800000011920929" rx="0.4000000059604645"></rect><rect x="24.1" y="24.10000038146973" width="0.800000011920929" height="0.800000011920929" rx="0.4000000059604645"></rect><rect x="25.1" y="24.10000038146973" width="0.800000011920929" height="0.800000011920929" rx="0.4000000059604645"></rect><rect x="26.1" y="24.10000038146973" width="0.800000011920929" height="0.800000011920929" rx="0.4000000059604645"></rect><rect x="27.1" y="24.10000038146973" width="0.800000011920929" height="0.800000011920929" rx="0.4000000059604645"></rect><rect x="28.1" y="24.10000038146973" width="0.800000011920929" height="0.800000011920929" rx="0.4000000059604645"></rect><rect x="29.1" y="24.10000038146973" width="0.800000011920929" height="0.800000011920929" rx="0.4000000059604645"></rect><rect x="31.1" y="24.10000038146973" width="0.800000011920929" height="0.800000011920929" rx="0.4000000059604645"></rect><rect x="32.1" y="24.10000038146973" width="0.800000011920929" height="0.800000011920929" rx="0.4000000059604645"></rect><rect x="8.1" y="25.10000038146973" width="0.800000011920929" height="0.800000011920929" rx="0.4000000059604645"></rect><rect x="10.1" y="25.10000038146973" width="0.800000011920929" height="0.800000011920929" rx="0.4000000059604645"></rect><rect x="12.1" y="25.10000038146973" width="0.800000011920929" height="0.800000011920929" rx="0.4000000059604645"></rect><rect x="13.1" y="25.10000038146973" width="0.800000011920929" height="0.800000011920929" rx="0.4000000059604645"></rect><rect x="15.1" y="25.10000038146973" width="0.800000011920929" height="0.800000011920929" rx="0.4000000059604645"></rect><rect x="16.1" y="25.10000038146973" width="0.800000011920929" height="0.800000011920929" rx="0.4000000059604645"></rect><rect x="17.1" y="25.10000038146973" width="0.800000011920929" height="0.800000011920929" rx="0.4000000059604645"></rect><rect x="20.1" y="25.10000038146973" width="0.800000011920929" height="0.800000011920929" rx="0.4000000059604645"></rect><rect x="23.1" y="25.10000038146973" width="0.800000011920929" height="0.800000011920929" rx="0.4000000059604645"></rect><rect x="24.1" y="25.10000038146973" width="0.800000011920929" height="0.800000011920929" rx="0.4000000059604645"></rect><rect x="28.1" y="25.10000038146973" width="0.800000011920929" height="0.800000011920929" rx="0.4000000059604645"></rect><rect x="29.1" y="25.10000038146973" width="0.800000011920929" height="0.800000011920929" rx="0.4000000059604645"></rect><rect x="32.1" y="25.10000038146973" width="0.800000011920929" height="0.800000011920929" rx="0.4000000059604645"></rect><rect x="8.1" y="0.1000000014901161" width="0.800000011920929" height="0.800000011920929" rx="0.4000000059604645"></rect><rect x="10.1" y="0.1000000014901161" width="0.800000011920929" height="0.800000011920929" rx="0.4000000059604645"></rect><rect x="12.1" y="0.1000000014901161" width="0.800000011920929" height="0.800000011920929" rx="0.4000000059604645"></rect><rect x="13.1" y="0.1000000014901161" width="0.800000011920929" height="0.800000011920929" rx="0.4000000059604645"></rect><rect x="14.1" y="0.1000000014901161" width="0.800000011920929" height="0.800000011920929" rx="0.4000000059604645"></rect><rect x="17.1" y="0.1000000014901161" width="0.800000011920929" height="0.800000011920929" rx="0.4000000059604645"></rect><rect x="18.1" y="0.1000000014901161" width="0.800000011920929" height="0.800000011920929" rx="0.4000000059604645"></rect><rect x="19.1" y="0.1000000014901161" width="0.800000011920929" height="0.800000011920929" rx="0.4000000059604645"></rect><rect x="23.1" y="0.1000000014901161" width="0.800000011920929" height="0.800000011920929" rx="0.4000000059604645"></rect><rect x="24.1" y="0.1000000014901161" width="0.800000011920929" height="0.800000011920929" rx="0.4000000059604645"></rect><rect x="8.1" y="1.100000023841858" width="0.800000011920929" height="0.800000011920929" rx="0.4000000059604645"></rect><rect x="11.1" y="1.100000023841858" width="0.800000011920929" height="0.800000011920929" rx="0.4000000059604645"></rect><rect x="15.1" y="1.100000023841858" width="0.800000011920929" height="0.800000011920929" rx="0.4000000059604645"></rect><rect x="16.1" y="1.100000023841858" width="0.800000011920929" height="0.800000011920929" rx="0.4000000059604645"></rect><rect x="17.1" y="1.100000023841858" width="0.800000011920929" height="0.800000011920929" rx="0.4000000059604645"></rect><rect x="19.1" y="1.100000023841858" width="0.800000011920929" height="0.800000011920929" rx="0.4000000059604645"></rect><rect x="22.1" y="1.100000023841858" width="0.800000011920929" height="0.800000011920929" rx="0.4000000059604645"></rect><rect x="24.1" y="1.100000023841858" width="0.800000011920929" height="0.800000011920929" rx="0.4000000059604645"></rect><rect x="8.1" y="2.099999904632568" width="0.800000011920929" height="0.800000011920929" rx="0.4000000059604645"></rect><rect x="9.1" y="2.099999904632568" width="0.800000011920929" height="0.800000011920929" rx="0.4000000059604645"></rect><rect x="10.1" y="2.099999904632568" width="0.800000011920929" height="0.800000011920929" rx="0.4000000059604645"></rect><rect x="12.1" y="2.099999904632568" width="0.800000011920929" height="0.800000011920929" rx="0.4000000059604645"></rect><rect x="14.1" y="2.099999904632568" width="0.800000011920929" height="0.800000011920929" rx="0.4000000059604645"></rect><rect x="18.1" y="2.099999904632568" width="0.800000011920929" height="0.800000011920929" rx="0.4000000059604645"></rect><rect x="20.1" y="2.099999904632568" width="0.800000011920929" height="0.800000011920929" rx="0.4000000059604645"></rect><rect x="21.1" y="2.099999904632568" width="0.800000011920929" height="0.800000011920929" rx="0.4000000059604645"></rect><rect x="23.1" y="2.099999904632568" width="0.800000011920929" height="0.800000011920929" rx="0.4000000059604645"></rect><rect x="24.1" y="2.099999904632568" width="0.800000011920929" height="0.800000011920929" rx="0.4000000059604645"></rect><rect x="9.1" y="3.099999904632568" width="0.800000011920929" height="0.800000011920929" rx="0.4000000059604645"></rect><rect x="14.1" y="3.099999904632568" width="0.800000011920929" height="0.800000011920929" rx="0.4000000059604645"></rect><rect x="16.1" y="3.099999904632568" width="0.800000011920929" height="0.800000011920929" rx="0.4000000059604645"></rect><rect x="17.1" y="3.099999904632568" width="0.800000011920929" height="0.800000011920929" rx="0.4000000059604645"></rect><rect x="19.1" y="3.099999904632568" width="0.800000011920929" height="0.800000011920929" rx="0.4000000059604645"></rect><rect x="20.1" y="3.099999904632568" width="0.800000011920929" height="0.800000011920929" rx="0.4000000059604645"></rect><rect x="22.1" y="3.099999904632568" width="0.800000011920929" height="0.800000011920929" rx="0.4000000059604645"></rect><rect x="23.1" y="3.099999904632568" width="0.800000011920929" height="0.800000011920929" rx="0.4000000059604645"></rect><rect x="24.1" y="3.099999904632568" width="0.800000011920929" height="0.800000011920929" rx="0.4000000059604645"></rect><rect x="9.1" y="4.099999904632568" width="0.800000011920929" height="0.800000011920929" rx="0.4000000059604645"></rect><rect x="10.1" y="4.099999904632568" width="0.800000011920929" height="0.800000011920929" rx="0.4000000059604645"></rect><rect x="13.1" y="4.099999904632568" width="0.800000011920929" height="0.800000011920929" rx="0.4000000059604645"></rect><rect x="14.1" y="4.099999904632568" width="0.800000011920929" height="0.800000011920929" rx="0.4000000059604645"></rect><rect x="15.1" y="4.099999904632568" width="0.800000011920929" height="0.800000011920929" rx="0.4000000059604645"></rect><rect x="17.1" y="4.099999904632568" width="0.800000011920929" height="0.800000011920929" rx="0.4000000059604645"></rect><rect x="18.1" y="4.099999904632568" width="0.800000011920929" height="0.800000011920929" rx="0.4000000059604645"></rect><rect x="19.1" y="4.099999904632568" width="0.800000011920929" height="0.800000011920929" rx="0.4000000059604645"></rect><rect x="20.1" y="4.099999904632568" width="0.800000011920929" height="0.800000011920929" rx="0.4000000059604645"></rect><rect x="21.1" y="4.099999904632568" width="0.800000011920929" height="0.800000011920929" rx="0.4000000059604645"></rect><rect x="23.1" y="4.099999904632568" width="0.800000011920929" height="0.800000011920929" rx="0.4000000059604645"></rect><rect x="8.1" y="5.099999904632568" width="0.800000011920929" height="0.800000011920929" rx="0.4000000059604645"></rect><rect x="12.1" y="5.099999904632568" width="0.800000011920929" height="0.800000011920929" rx="0.4000000059604645"></rect><rect x="14.1" y="5.099999904632568" width="0.800000011920929" height="0.800000011920929" rx="0.4000000059604645"></rect><rect x="17.1" y="5.099999904632568" width="0.800000011920929" height="0.800000011920929" rx="0.4000000059604645"></rect><rect x="19.1" y="5.099999904632568" width="0.800000011920929" height="0.800000011920929" rx="0.4000000059604645"></rect><rect x="21.1" y="5.099999904632568" width="0.800000011920929" height="0.800000011920929" rx="0.4000000059604645"></rect><rect x="22.1" y="5.099999904632568" width="0.800000011920929" height="0.800000011920929" rx="0.4000000059604645"></rect><rect x="24.1" y="5.099999904632568" width="0.800000011920929" height="0.800000011920929" rx="0.4000000059604645"></rect><rect x="8.1" y="6.099999904632568" width="0.800000011920929" height="0.800000011920929" rx="0.4000000059604645"></rect><rect x="10.1" y="6.099999904632568" width="0.800000011920929" height="0.800000011920929" rx="0.4000000059604645"></rect><rect x="12.1" y="6.099999904632568" width="0.800000011920929" height="0.800000011920929" rx="0.4000000059604645"></rect><rect x="14.1" y="6.099999904632568" width="0.800000011920929" height="0.800000011920929" rx="0.4000000059604645"></rect><rect x="16.1" y="6.099999904632568" width="0.800000011920929" height="0.800000011920929" rx="0.4000000059604645"></rect><rect x="18.1" y="6.099999904632568" width="0.800000011920929" height="0.800000011920929" rx="0.4000000059604645"></rect><rect x="20.1" y="6.099999904632568" width="0.800000011920929" height="0.800000011920929" rx="0.4000000059604645"></rect><rect x="22.1" y="6.099999904632568" width="0.800000011920929" height="0.800000011920929" rx="0.4000000059604645"></rect><rect x="24.1" y="6.099999904632568" width="0.800000011920929" height="0.800000011920929" rx="0.4000000059604645"></rect><rect x="9.1" y="26.10000038146973" width="0.800000011920929" height="0.800000011920929" rx="0.4000000059604645"></rect><rect x="10.1" y="26.10000038146973" width="0.800000011920929" height="0.800000011920929" rx="0.4000000059604645"></rect><rect x="13.1" y="26.10000038146973" width="0.800000011920929" height="0.800000011920929" rx="0.4000000059604645"></rect><rect x="15.1" y="26.10000038146973" width="0.800000011920929" height="0.800000011920929" rx="0.4000000059604645"></rect><rect x="16.1" y="26.10000038146973" width="0.800000011920929" height="0.800000011920929" rx="0.4000000059604645"></rect><rect x="17.1" y="26.10000038146973" width="0.800000011920929" height="0.800000011920929" rx="0.4000000059604645"></rect><rect x="18.1" y="26.10000038146973" width="0.800000011920929" height="0.800000011920929" rx="0.4000000059604645"></rect><rect x="19.1" y="26.10000038146973" width="0.800000011920929" height="0.800000011920929" rx="0.4000000059604645"></rect><rect x="22.1" y="26.10000038146973" width="0.800000011920929" height="0.800000011920929" rx="0.4000000059604645"></rect><rect x="24.1" y="26.10000038146973" width="0.800000011920929" height="0.800000011920929" rx="0.4000000059604645"></rect><rect x="26.1" y="26.10000038146973" width="0.800000011920929" height="0.800000011920929" rx="0.4000000059604645"></rect><rect x="28.1" y="26.10000038146973" width="0.800000011920929" height="0.800000011920929" rx="0.4000000059604645"></rect><rect x="29.1" y="26.10000038146973" width="0.800000011920929" height="0.800000011920929" rx="0.4000000059604645"></rect><rect x="31.1" y="26.10000038146973" width="0.800000011920929" height="0.800000011920929" rx="0.4000000059604645"></rect><rect x="9.1" y="27.10000038146973" width="0.800000011920929" height="0.800000011920929" rx="0.4000000059604645"></rect><rect x="11.1" y="27.10000038146973" width="0.800000011920929" height="0.800000011920929" rx="0.4000000059604645"></rect><rect x="14.1" y="27.10000038146973" width="0.800000011920929" height="0.800000011920929" rx="0.4000000059604645"></rect><rect x="15.1" y="27.10000038146973" width="0.800000011920929" height="0.800000011920929" rx="0.4000000059604645"></rect><rect x="16.1" y="27.10000038146973" width="0.800000011920929" height="0.800000011920929" rx="0.4000000059604645"></rect><rect x="23.1" y="27.10000038146973" width="0.800000011920929" height="0.800000011920929" rx="0.4000000059604645"></rect><rect x="24.1" y="27.10000038146973" width="0.800000011920929" height="0.800000011920929" rx="0.4000000059604645"></rect><rect x="28.1" y="27.10000038146973" width="0.800000011920929" height="0.800000011920929" rx="0.4000000059604645"></rect><rect x="29.1" y="27.10000038146973" width="0.800000011920929" height="0.800000011920929" rx="0.4000000059604645"></rect><rect x="30.1" y="27.10000038146973" width="0.800000011920929" height="0.800000011920929" rx="0.4000000059604645"></rect><rect x="31.1" y="27.10000038146973" width="0.800000011920929" height="0.800000011920929" rx="0.4000000059604645"></rect><rect x="32.1" y="27.10000038146973" width="0.800000011920929" height="0.800000011920929" rx="0.4000000059604645"></rect><rect x="8.1" y="28.10000038146973" width="0.800000011920929" height="0.800000011920929" rx="0.4000000059604645"></rect><rect x="14.1" y="28.10000038146973" width="0.800000011920929" height="0.800000011920929" rx="0.4000000059604645"></rect><rect x="15.1" y="28.10000038146973" width="0.800000011920929" height="0.800000011920929" rx="0.4000000059604645"></rect><rect x="16.1" y="28.10000038146973" width="0.800000011920929" height="0.800000011920929" rx="0.4000000059604645"></rect><rect x="18.1" y="28.10000038146973" width="0.800000011920929" height="0.800000011920929" rx="0.4000000059604645"></rect><rect x="21.1" y="28.10000038146973" width="0.800000011920929" height="0.800000011920929" rx="0.4000000059604645"></rect><rect x="22.1" y="28.10000038146973" width="0.800000011920929" height="0.800000011920929" rx="0.4000000059604645"></rect><rect x="24.1" y="28.10000038146973" width="0.800000011920929" height="0.800000011920929" rx="0.4000000059604645"></rect><rect x="25.1" y="28.10000038146973" width="0.800000011920929" height="0.800000011920929" rx="0.4000000059604645"></rect><rect x="26.1" y="28.10000038146973" width="0.800000011920929" height="0.800000011920929" rx="0.4000000059604645"></rect><rect x="27.1" y="28.10000038146973" width="0.800000011920929" height="0.800000011920929" rx="0.4000000059604645"></rect><rect x="28.1" y="28.10000038146973" width="0.800000011920929" height="0.800000011920929" rx="0.4000000059604645"></rect><rect x="31.1" y="28.10000038146973" width="0.800000011920929" height="0.800000011920929" rx="0.4000000059604645"></rect><rect x="32.1" y="28.10000038146973" width="0.800000011920929" height="0.800000011920929" rx="0.4000000059604645"></rect><rect x="8.1" y="29.10000038146973" width="0.800000011920929" height="0.800000011920929" rx="0.4000000059604645"></rect><rect x="9.1" y="29.10000038146973" width="0.800000011920929" height="0.800000011920929" rx="0.4000000059604645"></rect><rect x="10.1" y="29.10000038146973" width="0.800000011920929" height="0.800000011920929" rx="0.4000000059604645"></rect><rect x="11.1" y="29.10000038146973" width="0.800000011920929" height="0.800000011920929" rx="0.4000000059604645"></rect><rect x="12.1" y="29.10000038146973" width="0.800000011920929" height="0.800000011920929" rx="0.4000000059604645"></rect><rect x="14.1" y="29.10000038146973" width="0.800000011920929" height="0.800000011920929" rx="0.4000000059604645"></rect><rect x="15.1" y="29.10000038146973" width="0.800000011920929" height="0.800000011920929" rx="0.4000000059604645"></rect><rect x="16.1" y="29.10000038146973" width="0.800000011920929" height="0.800000011920929" rx="0.4000000059604645"></rect><rect x="18.1" y="29.10000038146973" width="0.800000011920929" height="0.800000011920929" rx="0.4000000059604645"></rect><rect x="19.1" y="29.10000038146973" width="0.800000011920929" height="0.800000011920929" rx="0.4000000059604645"></rect><rect x="21.1" y="29.10000038146973" width="0.800000011920929" height="0.800000011920929" rx="0.4000000059604645"></rect><rect x="23.1" y="29.10000038146973" width="0.800000011920929" height="0.800000011920929" rx="0.4000000059604645"></rect><rect x="24.1" y="29.10000038146973" width="0.800000011920929" height="0.800000011920929" rx="0.4000000059604645"></rect><rect x="25.1" y="29.10000038146973" width="0.800000011920929" height="0.800000011920929" rx="0.4000000059604645"></rect><rect x="28.1" y="29.10000038146973" width="0.800000011920929" height="0.800000011920929" rx="0.4000000059604645"></rect><rect x="30.1" y="29.10000038146973" width="0.800000011920929" height="0.800000011920929" rx="0.4000000059604645"></rect><rect x="32.1" y="29.10000038146973" width="0.800000011920929" height="0.800000011920929" rx="0.4000000059604645"></rect><rect x="8.1" y="30.10000038146973" width="0.800000011920929" height="0.800000011920929" rx="0.4000000059604645"></rect><rect x="9.1" y="30.10000038146973" width="0.800000011920929" height="0.800000011920929" rx="0.4000000059604645"></rect><rect x="10.1" y="30.10000038146973" width="0.800000011920929" height="0.800000011920929" rx="0.4000000059604645"></rect><rect x="14.1" y="30.10000038146973" width="0.800000011920929" height="0.800000011920929" rx="0.4000000059604645"></rect><rect x="15.1" y="30.10000038146973" width="0.800000011920929" height="0.800000011920929" rx="0.4000000059604645"></rect><rect x="16.1" y="30.10000038146973" width="0.800000011920929" height="0.800000011920929" rx="0.4000000059604645"></rect><rect x="18.1" y="30.10000038146973" width="0.800000011920929" height="0.800000011920929" rx="0.4000000059604645"></rect><rect x="20.1" y="30.10000038146973" width="0.800000011920929" height="0.800000011920929" rx="0.4000000059604645"></rect><rect x="21.1" y="30.10000038146973" width="0.800000011920929" height="0.800000011920929" rx="0.4000000059604645"></rect><rect x="22.1" y="30.10000038146973" width="0.800000011920929" height="0.800000011920929" rx="0.4000000059604645"></rect><rect x="23.1" y="30.10000038146973" width="0.800000011920929" height="0.800000011920929" rx="0.4000000059604645"></rect><rect x="24.1" y="30.10000038146973" width="0.800000011920929" height="0.800000011920929" rx="0.4000000059604645"></rect><rect x="25.1" y="30.10000038146973" width="0.800000011920929" height="0.800000011920929" rx="0.4000000059604645"></rect><rect x="26.1" y="30.10000038146973" width="0.800000011920929" height="0.800000011920929" rx="0.4000000059604645"></rect><rect x="29.1" y="30.10000038146973" width="0.800000011920929" height="0.800000011920929" rx="0.4000000059604645"></rect><rect x="30.1" y="30.10000038146973" width="0.800000011920929" height="0.800000011920929" rx="0.4000000059604645"></rect><rect x="9.1" y="31.10000038146973" width="0.800000011920929" height="0.800000011920929" rx="0.4000000059604645"></rect><rect x="10.1" y="31.10000038146973" width="0.800000011920929" height="0.800000011920929" rx="0.4000000059604645"></rect><rect x="13.1" y="31.10000038146973" width="0.800000011920929" height="0.800000011920929" rx="0.4000000059604645"></rect><rect x="14.1" y="31.10000038146973" width="0.800000011920929" height="0.800000011920929" rx="0.4000000059604645"></rect><rect x="15.1" y="31.10000038146973" width="0.800000011920929" height="0.800000011920929" rx="0.4000000059604645"></rect><rect x="17.1" y="31.10000038146973" width="0.800000011920929" height="0.800000011920929" rx="0.4000000059604645"></rect><rect x="18.1" y="31.10000038146973" width="0.800000011920929" height="0.800000011920929" rx="0.4000000059604645"></rect><rect x="19.1" y="31.10000038146973" width="0.800000011920929" height="0.800000011920929" rx="0.4000000059604645"></rect><rect x="20.1" y="31.10000038146973" width="0.800000011920929" height="0.800000011920929" rx="0.4000000059604645"></rect><rect x="25.1" y="31.10000038146973" width="0.800000011920929" height="0.800000011920929" rx="0.4000000059604645"></rect><rect x="27.1" y="31.10000038146973" width="0.800000011920929" height="0.800000011920929" rx="0.4000000059604645"></rect><rect x="29.1" y="31.10000038146973" width="0.800000011920929" height="0.800000011920929" rx="0.4000000059604645"></rect><rect x="30.1" y="31.10000038146973" width="0.800000011920929" height="0.800000011920929" rx="0.4000000059604645"></rect><rect x="9.1" y="32.09999847412109" width="0.800000011920929" height="0.800000011920929" rx="0.4000000059604645"></rect><rect x="11.1" y="32.09999847412109" width="0.800000011920929" height="0.800000011920929" rx="0.4000000059604645"></rect><rect x="14.1" y="32.09999847412109" width="0.800000011920929" height="0.800000011920929" rx="0.4000000059604645"></rect><rect x="15.1" y="32.09999847412109" width="0.800000011920929" height="0.800000011920929" rx="0.4000000059604645"></rect><rect x="17.1" y="32.09999847412109" width="0.800000011920929" height="0.800000011920929" rx="0.4000000059604645"></rect><rect x="20.1" y="32.09999847412109" width="0.800000011920929" height="0.800000011920929" rx="0.4000000059604645"></rect><rect x="23.1" y="32.09999847412109" width="0.800000011920929" height="0.800000011920929" rx="0.4000000059604645"></rect><rect x="24.1" y="32.09999847412109" width="0.800000011920929" height="0.800000011920929" rx="0.4000000059604645"></rect><rect x="25.1" y="32.09999847412109" width="0.800000011920929" height="0.800000011920929" rx="0.4000000059604645"></rect><rect x="29.1" y="32.09999847412109" width="0.800000011920929" height="0.800000011920929" rx="0.4000000059604645"></rect><rect x="30.1" y="32.09999847412109" width="0.800000011920929" height="0.800000011920929" rx="0.4000000059604645"></rect><rect x="31.1" y="32.09999847412109" width="0.800000011920929" height="0.800000011920929" rx="0.4000000059604645"></rect></g><g class="qrRounded qrAlPatterns"><g class="qrDark" fill="#fabd2f"><rect x="0" y="0" width="7.0" height="7.0" rx="3.5"></rect><rect x="26" y="0" width="7.0" height="7.0" rx="3.5"></rect><rect x="0" y="26" width="7.0" height="7.0" rx="3.5"></rect></g><g class="qrLight" fill="#1d2021"><rect x="1" y="1" width="5.0" height="5.0" rx="2.5"></rect><rect x="27" y="1" width="5.0" height="5.0" rx="2.5"></rect><rect x="1" y="27" width="5.0" height="5.0" rx="2.5"></rect></g><g class="qrDark" fill="#fabd2f"><rect x="2" y="2" width="3.0" height="3.0" rx="1.5"></rect><rect x="28" y="2" width="3.0" height="3.0" rx="1.5"></rect><rect x="2" y="28" width="3.0" height="3.0" rx="1.5"></rect></g></g><image x="11" y="11" width="11" height="11" href="data:image/svg+xml,%3c?xml version='1.0' encoding='UTF-8' standalone='no'?%3e%3csvg width='20mm' height='19.999981mm' viewBox='0 0 20 19.999981' version='1.1' id='svg1276' xmlns='http://www.w3.org/2000/svg' xmlns:svg='http://www.w3.org/2000/svg'%3e %3cdefs id='defs1273'%3e %3crect x='-71.622353' y='-14.460386' width='176.23407' height='51.461491' id='rect4196' /%3e %3c/defs%3e %3cpath id='rect1316' style='fill:%231d2021%3bstroke:%2398971a%3bstroke-width:0%3bstroke-linecap:round%3bstroke-linejoin:round%3bpaint-order:stroke markers fill' d='M 2.7846712e-7%2c-4.1499984e-7 H 20 V 19.99998 H 2.7846712e-7 Z' /%3e %3cg id='g26459' transform='translate(46.703183%2c-58.303405)'%3e %3cpath style='fill:%23d79921%3bfill-opacity:1%3bstroke:none%3bstroke-width:0.200817' d='m -36.693805%2c58.963949 c 0%2c0 -0.684843%2c0.541206 -1.383009%2c1.07875 -0.718198%2c-0.02272 -2.126863%2c0.137877 -2.890152%2c0.415572 -0.703109%2c-0.445442 -1.320932%2c-0.937255 -1.320932%2c-0.937255 0%2c0 -0.527948%2c0.908246 -0.859957%2c1.441268 -0.492388%2c0.261856 -0.986739%2c0.556405 -1.427351%2c0.946101 -0.512462%2c-0.203396 -1.106526%2c-0.451597 -1.125895%2c-0.459781 0.678643%2c1.368843 1.134874%2c2.739518 2.375925%2c3.563361 1.975837%2c-3.1205 11.157388%2c-2.8329 13.174081%2c-0.01765 1.303305%2c-0.679789 1.810186%2c-2.142345 2.322737%2c-3.492636 -0.05625%2c0.01765 -0.753604%2c0.251995 -1.205688%2c0.424441 -0.26993%2c-0.293888 -0.906152%2c-0.745706 -1.267765%2c-0.963794 -0.342995%2c-0.628102 -0.842221%2c-1.476653 -0.842221%2c-1.476653 0%2c0 -0.591285%2c0.439773 -1.276612%2c0.919585 -0.925896%2c-0.170967 -2.045769%2c-0.378577 -2.987681%2c-0.327154 -0.641163%2c-0.527022 -1.28548%2c-1.114113 -1.28548%2c-1.114113 z' id='path3054' /%3e %3cpath style='fill:%23fabd2f%3bfill-opacity:1%3bstroke:none%3bstroke-width:0.200817' d='m -44.999427%2c64.357634 c 0%2c0 0.961899%2c2.329041 1.629953%2c3.947431 2.830766%2c3.734638 10.059421%2c3.994288 13.210746%2c0.07236 0.745707%2c-1.6806 1.751793%2c-4.042423 1.751793%2c-4.042423 -0.808469%2c1.197699 -2.124216%2c2.024476 -2.93456%2c2.46983 -0.575798%2c0.315441 -1.904428%2c0.506108 -1.904428%2c0.506108 l -3.48812%2c-1.807557 -3.508152%2c1.771401 c 0%2c0 -1.31096%2c-0.210677 -1.90445%2c-0.488041 -1.197812%2c-0.639419 -2.003435%2c-1.394853 -2.852782%2c-2.429063 z' id='path3051' /%3e %3c/g%3e %3ctext xml:space='preserve' transform='matrix(0.11975718%2c0%2c0%2c0.11975718%2c9.930502%2c15.775323)' id='text4194' style='font-style:italic%3bfont-variant:normal%3bfont-weight:900%3bfont-stretch:expanded%3bfont-size:40px%3bline-height:1.25%3bfont-family:Iosevka%3b-inkscape-font-specification:%22Iosevka%2c Heavy Italic Expanded%22%3bfont-variant-ligatures:normal%3bfont-variant-caps:normal%3bfont-variant-numeric:normal%3bfont-variant-east-asian:normal%3bwhite-space:pre%3bshape-inside:url(%23rect4196)%3bfill:%23d79921%3bfill-opacity:1%3bstroke:none'%3e %3ctspan x='-71.623047' y='21.483063' id='tspan2345'%3eQRterm%3c/tspan%3e%3c/text%3e%3c/svg%3e"/></svg>